<mxfile host="app.diagrams.net" modified="2023-05-25T20:46:00.287Z" agent="Mozilla/5.0 (X11; Linux x86_64) AppleWebKit/537.36 (KHTML, like Gecko) Chrome/113.0.0.0 Safari/537.36" version="21.3.2" etag="g-HhML9MGzk3P9sk_yQ0" type="github">
  <diagram name="PÃ¡gina-1" id="tQKHsSzKHx3bf46_ZmaH">
    <mxGraphModel>
      <root>
        <mxCell id="0" />
        <mxCell id="1" parent="0" />
      </root>
    </mxGraphModel>
  </diagram>
</mxfile>
